<mxfile host="app.diagrams.net" modified="2023-04-04T02:03:07.631Z" agent="Mozilla/5.0 (Windows NT 10.0; Win64; x64) AppleWebKit/537.36 (KHTML, like Gecko) Chrome/111.0.0.0 Safari/537.36" etag="oTTwOzn5BCeQF5bFFBS4" version="21.1.4" type="github">
  <diagram id="C5RBs43oDa-KdzZeNtuy" name="Page-1">
    <mxGraphModel dx="1434" dy="764" grid="1" gridSize="10" guides="1" tooltips="1" connect="1" arrows="1" fold="1" page="1" pageScale="1" pageWidth="827" pageHeight="1169" math="0" shadow="0">
      <root>
        <mxCell id="WIyWlLk6GJQsqaUBKTNV-0" />
        <mxCell id="WIyWlLk6GJQsqaUBKTNV-1" parent="WIyWlLk6GJQsqaUBKTNV-0" />
        <mxCell id="duuvg9W_gR2Q3q82Fqal-2" value="" style="edgeStyle=orthogonalEdgeStyle;rounded=0;orthogonalLoop=1;jettySize=auto;html=1;" edge="1" parent="WIyWlLk6GJQsqaUBKTNV-1" source="duuvg9W_gR2Q3q82Fqal-0" target="duuvg9W_gR2Q3q82Fqal-1">
          <mxGeometry relative="1" as="geometry" />
        </mxCell>
        <mxCell id="duuvg9W_gR2Q3q82Fqal-0" value="开始" style="ellipse;whiteSpace=wrap;html=1;labelBackgroundColor=none;labelBorderColor=none;" vertex="1" parent="WIyWlLk6GJQsqaUBKTNV-1">
          <mxGeometry x="158" y="24" width="120" height="80" as="geometry" />
        </mxCell>
        <mxCell id="duuvg9W_gR2Q3q82Fqal-4" style="edgeStyle=orthogonalEdgeStyle;rounded=0;orthogonalLoop=1;jettySize=auto;html=1;" edge="1" parent="WIyWlLk6GJQsqaUBKTNV-1" source="duuvg9W_gR2Q3q82Fqal-1" target="duuvg9W_gR2Q3q82Fqal-3">
          <mxGeometry relative="1" as="geometry" />
        </mxCell>
        <mxCell id="duuvg9W_gR2Q3q82Fqal-1" value="起草状态" style="rounded=1;whiteSpace=wrap;html=1;" vertex="1" parent="WIyWlLk6GJQsqaUBKTNV-1">
          <mxGeometry x="158" y="130" width="120" height="60" as="geometry" />
        </mxCell>
        <mxCell id="duuvg9W_gR2Q3q82Fqal-23" value="" style="edgeStyle=orthogonalEdgeStyle;rounded=0;orthogonalLoop=1;jettySize=auto;html=1;" edge="1" parent="WIyWlLk6GJQsqaUBKTNV-1" source="duuvg9W_gR2Q3q82Fqal-5" target="duuvg9W_gR2Q3q82Fqal-21">
          <mxGeometry relative="1" as="geometry" />
        </mxCell>
        <mxCell id="duuvg9W_gR2Q3q82Fqal-3" value="审批中" style="rounded=1;whiteSpace=wrap;html=1;" vertex="1" parent="WIyWlLk6GJQsqaUBKTNV-1">
          <mxGeometry x="158" y="220" width="120" height="60" as="geometry" />
        </mxCell>
        <mxCell id="duuvg9W_gR2Q3q82Fqal-6" value="审批通过待上传" style="rounded=1;whiteSpace=wrap;html=1;" vertex="1" parent="WIyWlLk6GJQsqaUBKTNV-1">
          <mxGeometry x="158" y="894" width="120" height="60" as="geometry" />
        </mxCell>
        <mxCell id="duuvg9W_gR2Q3q82Fqal-8" value="审批通过" style="text;html=1;align=center;verticalAlign=middle;resizable=0;points=[];autosize=1;strokeColor=none;fillColor=none;" vertex="1" parent="WIyWlLk6GJQsqaUBKTNV-1">
          <mxGeometry x="183" y="585" width="70" height="30" as="geometry" />
        </mxCell>
        <mxCell id="duuvg9W_gR2Q3q82Fqal-27" value="" style="edgeStyle=orthogonalEdgeStyle;rounded=0;orthogonalLoop=1;jettySize=auto;html=1;" edge="1" parent="WIyWlLk6GJQsqaUBKTNV-1" source="duuvg9W_gR2Q3q82Fqal-12" target="duuvg9W_gR2Q3q82Fqal-26">
          <mxGeometry relative="1" as="geometry" />
        </mxCell>
        <mxCell id="duuvg9W_gR2Q3q82Fqal-12" value="审批驳回" style="text;html=1;align=center;verticalAlign=middle;resizable=0;points=[];autosize=1;strokeColor=none;fillColor=none;" vertex="1" parent="WIyWlLk6GJQsqaUBKTNV-1">
          <mxGeometry x="310" y="357.5" width="70" height="30" as="geometry" />
        </mxCell>
        <mxCell id="duuvg9W_gR2Q3q82Fqal-16" value="" style="edgeStyle=orthogonalEdgeStyle;rounded=0;orthogonalLoop=1;jettySize=auto;html=1;" edge="1" parent="WIyWlLk6GJQsqaUBKTNV-1" target="duuvg9W_gR2Q3q82Fqal-6">
          <mxGeometry relative="1" as="geometry">
            <mxPoint x="218" y="804" as="sourcePoint" />
          </mxGeometry>
        </mxCell>
        <mxCell id="duuvg9W_gR2Q3q82Fqal-25" value="" style="edgeStyle=orthogonalEdgeStyle;rounded=0;orthogonalLoop=1;jettySize=auto;html=1;" edge="1" parent="WIyWlLk6GJQsqaUBKTNV-1" source="duuvg9W_gR2Q3q82Fqal-21" target="duuvg9W_gR2Q3q82Fqal-12">
          <mxGeometry relative="1" as="geometry" />
        </mxCell>
        <mxCell id="duuvg9W_gR2Q3q82Fqal-21" value="接收审批状态" style="rhombus;whiteSpace=wrap;html=1;" vertex="1" parent="WIyWlLk6GJQsqaUBKTNV-1">
          <mxGeometry x="170" y="357.5" width="96" height="105" as="geometry" />
        </mxCell>
        <mxCell id="duuvg9W_gR2Q3q82Fqal-26" value="" style="rounded=1;whiteSpace=wrap;html=1;" vertex="1" parent="WIyWlLk6GJQsqaUBKTNV-1">
          <mxGeometry x="440" y="342.5" width="120" height="60" as="geometry" />
        </mxCell>
        <mxCell id="duuvg9W_gR2Q3q82Fqal-28" value="" style="rhombus;whiteSpace=wrap;html=1;" vertex="1" parent="WIyWlLk6GJQsqaUBKTNV-1">
          <mxGeometry x="178" y="640" width="80" height="80" as="geometry" />
        </mxCell>
        <mxCell id="duuvg9W_gR2Q3q82Fqal-29" value="" style="edgeStyle=orthogonalEdgeStyle;rounded=0;orthogonalLoop=1;jettySize=auto;html=1;" edge="1" parent="WIyWlLk6GJQsqaUBKTNV-1" source="duuvg9W_gR2Q3q82Fqal-21" target="duuvg9W_gR2Q3q82Fqal-10">
          <mxGeometry relative="1" as="geometry">
            <mxPoint x="218" y="425" as="sourcePoint" />
            <mxPoint x="218" y="554" as="targetPoint" />
          </mxGeometry>
        </mxCell>
        <mxCell id="duuvg9W_gR2Q3q82Fqal-10" value="审批通过待上传" style="rounded=1;whiteSpace=wrap;html=1;" vertex="1" parent="WIyWlLk6GJQsqaUBKTNV-1">
          <mxGeometry x="158" y="481.5" width="120" height="60" as="geometry" />
        </mxCell>
        <mxCell id="duuvg9W_gR2Q3q82Fqal-31" value="" style="edgeStyle=orthogonalEdgeStyle;rounded=0;orthogonalLoop=1;jettySize=auto;html=1;" edge="1" parent="WIyWlLk6GJQsqaUBKTNV-1" source="duuvg9W_gR2Q3q82Fqal-3" target="duuvg9W_gR2Q3q82Fqal-5">
          <mxGeometry relative="1" as="geometry">
            <mxPoint x="218" y="280" as="sourcePoint" />
            <mxPoint x="218" y="320" as="targetPoint" />
          </mxGeometry>
        </mxCell>
        <mxCell id="duuvg9W_gR2Q3q82Fqal-5" value="提交审批" style="text;html=1;align=center;verticalAlign=middle;resizable=0;points=[];autosize=1;strokeColor=none;fillColor=none;" vertex="1" parent="WIyWlLk6GJQsqaUBKTNV-1">
          <mxGeometry x="183" y="302" width="70" height="30" as="geometry" />
        </mxCell>
      </root>
    </mxGraphModel>
  </diagram>
</mxfile>
